<svg width="31" height="30" viewBox="0 0 31 30" fill="none" xmlns="http://www.w3.org/2000/svg">
<path id="Vector" d="M29.3333 9.99997H27.1358L21.5858 0.741636C21.365 0.37387 21.0218 0.118621 20.6316 0.0320416C20.2414 -0.0545377 19.8363 0.0346446 19.5053 0.27997C19.1743 0.525295 18.9446 0.906667 18.8667 1.34019C18.7888 1.77371 18.869 2.22387 19.0898 2.59164L23.5313 9.99997H8.13531L12.5813 2.59164C12.8021 2.22387 12.8824 1.77371 12.8044 1.34019C12.7265 0.906668 12.4968 0.525295 12.1658 0.27997C11.8348 0.0346446 11.4297 -0.0545377 11.0395 0.0320416C10.6493 0.118621 10.3061 0.37387 10.0853 0.741636L4.53081 9.99997H2.33331C1.93549 9.99997 1.55396 10.1756 1.27265 10.4881C0.991348 10.8007 0.833313 11.2246 0.833313 11.6666C0.833313 12.1087 0.991348 12.5326 1.27265 12.8451C1.55396 13.1577 1.93549 13.3333 2.33331 13.3333H3.83331V26.6666C3.83331 27.5507 4.14938 28.3985 4.71199 29.0237C5.2746 29.6488 6.03766 30 6.83331 30H24.8333C25.629 30 26.392 29.6488 26.9546 29.0237C27.5172 28.3985 27.8333 27.5507 27.8333 26.6666V13.3333H29.3333C29.7311 13.3333 30.1127 13.1577 30.394 12.8451C30.6753 12.5326 30.8333 12.1087 30.8333 11.6666C30.8333 11.2246 30.6753 10.8007 30.394 10.4881C30.1127 10.1756 29.7311 9.99997 29.3333 9.99997ZM11.3333 24.1666C11.3333 24.6087 11.1753 25.0326 10.894 25.3451C10.6127 25.6577 10.2311 25.8333 9.83331 25.8333C9.43549 25.8333 9.05396 25.6577 8.77265 25.3451C8.49135 25.0326 8.33331 24.6087 8.33331 24.1666V17.5C8.33331 17.0579 8.49135 16.634 8.77265 16.3215C9.05396 16.0089 9.43549 15.8333 9.83331 15.8333C10.2311 15.8333 10.6127 16.0089 10.894 16.3215C11.1753 16.634 11.3333 17.0579 11.3333 17.5V24.1666ZM17.3333 24.1666C17.3333 24.6087 17.1753 25.0326 16.894 25.3451C16.6127 25.6577 16.2311 25.8333 15.8333 25.8333C15.4355 25.8333 15.054 25.6577 14.7727 25.3451C14.4913 25.0326 14.3333 24.6087 14.3333 24.1666V17.5C14.3333 17.0579 14.4913 16.634 14.7727 16.3215C15.054 16.0089 15.4355 15.8333 15.8333 15.8333C16.2311 15.8333 16.6127 16.0089 16.894 16.3215C17.1753 16.634 17.3333 17.0579 17.3333 17.5V24.1666ZM23.3333 24.1666C23.3333 24.6087 23.1753 25.0326 22.894 25.3451C22.6127 25.6577 22.2311 25.8333 21.8333 25.8333C21.4355 25.8333 21.054 25.6577 20.7727 25.3451C20.4913 25.0326 20.3333 24.6087 20.3333 24.1666V17.5C20.3333 17.0579 20.4913 16.634 20.7727 16.3215C21.054 16.0089 21.4355 15.8333 21.8333 15.8333C22.2311 15.8333 22.6127 16.0089 22.894 16.3215C23.1753 16.634 23.3333 17.0579 23.3333 17.5V24.1666Z" fill="#A50000"/>
</svg>
