<svg width="78" height="61" viewBox="0 0 78 61" fill="none" xmlns="http://www.w3.org/2000/svg">
<path id="Vector" d="M17.16 0C7.64156 0 0 7.64156 0 17.16C0 20.7492 1.09078 24.18 3.12 26.9892V48.36C3.12 50.8584 5.30156 53.04 7.8 53.04H11.0662C11.8158 57.4519 15.667 60.84 20.28 60.84C24.893 60.84 28.7442 57.4519 29.4937 53.04H43.8323C46.3308 53.04 48.2077 51.0108 48.2077 48.6708V10.7677C48.36 8.26922 46.3308 6.24 43.9908 6.24H30.42C27.3 2.49844 22.4616 0 17.16 0ZM17.16 3.12C24.96 3.12 31.2 9.36 31.2 17.16C31.2 24.96 24.96 31.2 17.16 31.2C9.36 31.2 3.12 24.96 3.12 17.16C3.12 9.36 9.36 3.12 17.16 3.12ZM17.1356 4.65562C16.2764 4.67391 15.5878 5.38078 15.6 6.24V15.21C15.0089 15.6853 14.6677 16.4044 14.6616 17.16C14.6677 17.2514 14.6737 17.3428 14.6859 17.4281L11.377 20.737C10.9688 21.127 10.8042 21.712 10.9505 22.2544C11.0906 22.8028 11.5172 23.2294 12.0656 23.3695C12.608 23.5158 13.193 23.3512 13.583 22.943L16.8858 19.6402C16.9772 19.6523 17.0686 19.6523 17.16 19.6523C18.5372 19.6523 19.6523 18.5372 19.6523 17.16C19.6523 16.4044 19.3111 15.6853 18.72 15.21V6.24C18.7261 5.81953 18.5616 5.41125 18.263 5.11266C17.9644 4.81406 17.5561 4.64953 17.1356 4.65562ZM53.04 14.04C51.3216 14.04 49.92 15.4416 49.92 17.16V49.92C49.92 51.2302 50.7427 52.3575 51.8944 52.8145C52.5525 57.3361 56.4586 60.84 61.1508 60.84C65.7637 60.84 69.6211 57.4519 70.3706 53.04H73.32C75.9708 53.04 78 51.0108 78 48.36V33.3877C78 30.2677 75.8184 26.9892 75.5077 26.6723L71.9123 21.84L68.9508 17.94C67.3908 16.2216 65.0508 14.04 62.4 14.04H53.04ZM59.28 21.84H68.0123L73.0092 28.3908C73.4784 29.1708 74.88 31.5108 74.88 33.2292V34.32H59.28C57.72 34.32 56.16 32.76 56.16 31.2V24.96C56.16 23.2416 57.72 21.84 59.28 21.84ZM20.28 45.24C23.7108 45.24 26.52 48.0492 26.52 51.48C26.52 54.9108 23.7108 57.72 20.28 57.72C16.8492 57.72 14.04 54.9108 14.04 51.48C14.04 48.0492 16.8492 45.24 20.28 45.24ZM61.1508 45.24C64.5816 45.24 67.3908 48.0492 67.3908 51.48C67.3908 54.9108 64.5816 57.72 61.1508 57.72C57.72 57.72 54.9108 54.9108 54.9108 51.48C54.9108 48.0492 57.72 45.24 61.1508 45.24Z" fill="white"/>
</svg>
