<svg width="31" height="30" viewBox="0 0 31 30" fill="none" xmlns="http://www.w3.org/2000/svg">
<g id="ghost-svgrepo-com (3) 1" clip-path="url(#clip0_7_1187)">
<g id="SVGRepo_iconCarrier">
<path id="Vector" d="M20.3968 13.1303C20.3968 14.1629 19.8381 15 19.1488 15C18.4595 15 17.9008 14.1629 17.9008 13.1303C17.9008 12.0977 18.4595 11.2606 19.1488 11.2606C19.8381 11.2606 20.3968 12.0977 20.3968 13.1303Z" fill="white"/>
<path id="Vector_2" d="M11.6607 15C12.35 15 12.9087 14.1629 12.9087 13.1303C12.9087 12.0977 12.35 11.2606 11.6607 11.2606C10.9715 11.2606 10.4127 12.0977 10.4127 13.1303C10.4127 14.1629 10.9715 15 11.6607 15Z" fill="white"/>
<path id="Vector_3" d="M27.8849 15.3747C27.8849 8.28377 22.2973 2.53546 15.4048 2.53546C8.51216 2.53546 2.92461 8.28377 2.92461 15.3747V24.6264C2.92461 26.2746 4.61065 27.3466 6.04365 26.6095C7.20188 26.0137 8.58161 26.102 9.65907 26.8411C10.8712 27.6723 12.4503 27.6723 13.6624 26.8411L14.1025 26.5392C14.8911 25.9983 15.9184 25.9983 16.7071 26.5392L17.1471 26.8411C18.3593 27.6723 19.9383 27.6723 21.1505 26.8411C22.2279 26.102 23.6076 26.0137 24.7659 26.6095C26.1989 27.3466 27.8849 26.2746 27.8849 24.6264V20.0005" stroke="white" stroke-width="4" stroke-linecap="round"/>
</g>
</g>
<defs>
<clipPath id="clip0_7_1187">
<rect width="29.9524" height="29.9149" fill="white" transform="translate(0.428574 0.0425415)"/>
</clipPath>
</defs>
</svg>
