<svg width="91" height="99" viewBox="0 0 91 99" fill="none" xmlns="http://www.w3.org/2000/svg">
<path d="M68.8859 7.9024L59.4393 11.9596L53.7029 18.4165V26.5237C53.4556 26.5117 52.0806 26.4664 50.3288 26.4228V24.6897C50.3288 23.5828 49.654 22.8448 48.6418 22.8448C47.6297 22.8448 46.9548 23.5828 46.9548 24.6897V26.3868C45.2964 26.3828 43.6145 26.4136 41.8938 26.4877V24.6897C41.8938 23.5828 41.219 22.8448 40.2068 22.8448C39.1946 22.8448 38.5198 23.5828 38.5198 24.6897V26.6642C36.0315 26.8121 33.7883 27.0013 31.7718 27.2227V24.6896C31.7718 23.5827 31.097 22.8448 30.0848 22.8448C29.0726 22.8448 28.3978 23.5827 28.3978 24.6896V27.6226C26.048 27.9397 24.1829 28.2436 23.2479 28.4009H23.2413L23.2314 28.4045C22.6294 28.5125 22.2172 28.6139 21.6498 28.7216V25.4283C21.6498 24.3214 20.975 23.5835 19.9628 23.5835C18.9506 23.5835 18.2758 24.3214 18.2758 25.4283V29.4026C14.342 30.2398 11.5575 30.9633 9.84083 31.4745V27.6407C9.84083 26.5338 9.16603 25.7958 8.15383 25.7958C7.14163 25.7958 6.46683 26.5338 6.46683 27.6407V49.5949C7.64773 48.6725 8.65993 47.7494 9.84083 47.0114V35.2867C11.241 34.8466 14.0793 34.0556 18.2758 33.1464V40.9257C18.2758 41.2946 18.4439 41.4791 18.4439 41.8481C19.4561 41.2946 20.4689 40.9235 21.6498 40.5545V32.4726C22.3971 32.3279 22.9635 32.1899 23.7784 32.0438C24.6613 31.8952 26.3441 31.6254 28.3978 31.3412V37.9711V38.3422H28.5659C29.5781 37.9733 30.5909 37.605 31.7718 37.236V30.9304C33.7688 30.7066 36.0208 30.5126 38.5198 30.3612V35.575C39.532 35.3905 40.7129 35.2046 41.8938 35.02V30.1774C43.5945 30.1018 45.2833 30.0723 46.9548 30.0764V34.2814C47.4609 34.2814 47.9684 34.0976 48.3058 34.0976H50.3288V30.1125C52.0451 30.1556 53.54 30.2058 53.7029 30.2134V33.9138C55.896 33.9138 57.9204 33.9131 60.4509 34.0976V24.6896C60.4509 23.5827 61.1257 22.8448 62.1379 22.8448H75.6339C76.6461 22.8448 77.3209 23.5827 77.3209 24.6896V35.3911C79.514 35.5756 81.8758 35.9446 84.0689 36.3135V18.4165L78.3324 12.1433L68.8859 7.9024ZM68.8859 15.4655C69.8981 15.4655 70.5729 16.2034 70.5729 17.3103C70.5729 18.4172 69.8981 19.1552 68.8859 19.1552C67.8737 19.1552 67.1989 18.4172 67.1989 17.3103C67.1989 16.2034 67.8737 15.4655 68.8859 15.4655ZM52.6913 37.971C45.6059 41.6607 38.6892 45.9067 32.4473 51.0722C23.3375 58.2671 15.746 66.5667 7.14229 78.3736L6.46683 79.1123V91.1037H21.4818L21.6498 90.5488C22.662 87.597 29.9148 72.1026 38.8559 60.4801C46.6161 50.3336 54.2096 42.9549 60.2828 38.1584C57.4149 37.9739 55.0531 37.971 52.6913 37.971ZM66.0193 38.5259C60.1148 42.2156 50.8363 50.5166 41.5578 62.6925C33.1228 73.946 26.5415 87.5985 25.1919 91.1037H43.5808L43.7489 90.5488C46.9542 80.0332 51.1723 70.0718 56.2334 60.8477C61.4631 51.6235 67.1995 43.8745 71.2483 38.8934C69.5613 38.7089 67.875 38.7104 66.0193 38.5259ZM43.9169 38.7097C37.675 39.6321 32.7827 41.1094 29.5774 42.0318C24.3477 43.6922 20.2989 44.9821 15.2379 47.9339C12.5387 49.5942 9.84017 51.4383 7.47837 53.6521L6.46683 54.5745V73.394C14.5644 62.694 21.8172 55.128 30.4209 48.1176C34.6384 44.6124 39.1933 41.6614 43.9169 38.7097ZM75.4658 39.0808C71.5857 43.8774 64.8357 52.177 59.0999 62.6925C54.2076 71.5477 50.1595 81.1416 47.1229 91.1037H63.6568L63.8249 90.7362C65.5119 82.4344 67.7037 74.315 70.0655 66.3822C72.7647 57.3425 76.1407 48.3028 79.6834 39.6321C78.3338 39.4476 76.9841 39.2653 75.4658 39.0808ZM83.0573 40.187C79.3459 49.0422 75.9713 58.2642 73.1034 67.4884C70.7416 75.2367 68.7178 83.1709 67.0308 91.1037H84.0689V40.187L83.0573 40.187Z" fill="white"/>
</svg>
