<svg width="78" height="78" viewBox="0 0 78 78" fill="none" xmlns="http://www.w3.org/2000/svg">
<g id="money-alt-1-svgrepo-com 1">
<path id="Vector" d="M65 6.5H13C11.2761 6.5 9.62279 7.18482 8.40381 8.40381C7.18482 9.62279 6.5 11.2761 6.5 13V52C6.5 53.7239 7.18482 55.3772 8.40381 56.5962C9.62279 57.8152 11.2761 58.5 13 58.5H65C66.7239 58.5 68.3772 57.8152 69.5962 56.5962C70.8152 55.3772 71.5 53.7239 71.5 52V13C71.5 11.2761 70.8152 9.62279 69.5962 8.40381C68.3772 7.18482 66.7239 6.5 65 6.5ZM37.375 29.25H40.625C42.7799 29.0345 44.9321 29.6839 46.6082 31.0552C48.2843 32.4266 49.347 34.4076 49.5625 36.5625C49.778 38.7174 49.1286 40.8696 47.7573 42.5457C46.3859 44.2218 44.4049 45.2845 42.25 45.5C42.25 46.3619 41.9076 47.1886 41.2981 47.7981C40.6886 48.4076 39.8619 48.75 39 48.75C38.138 48.75 37.3114 48.4076 36.7019 47.7981C36.0924 47.1886 35.75 46.3619 35.75 45.5H32.5C31.638 45.5 30.8114 45.1576 30.2019 44.5481C29.5924 43.9386 29.25 43.1119 29.25 42.25C29.25 41.388 29.5924 40.5614 30.2019 39.9519C30.8114 39.3424 31.638 39 32.5 39H40.625C41.056 39 41.4693 38.8288 41.774 38.524C42.0788 38.2193 42.25 37.806 42.25 37.375C42.25 36.944 42.0788 36.5307 41.774 36.2259C41.4693 35.9212 41.056 35.75 40.625 35.75H37.375C35.3601 35.752 33.4163 35.0053 31.921 33.6548C30.4256 32.3042 29.4855 30.4463 29.283 28.4416C29.0805 26.4368 29.6301 24.4284 30.8251 22.8061C32.0202 21.1838 33.7754 20.0635 35.75 19.6625V19.5C35.75 18.638 36.0924 17.8114 36.7019 17.2019C37.3114 16.5924 38.138 16.25 39 16.25C39.8619 16.25 40.6886 16.5924 41.2981 17.2019C41.9076 17.8114 42.25 18.638 42.25 19.5H45.5C46.3619 19.5 47.1886 19.8424 47.7981 20.4519C48.4076 21.0614 48.75 21.888 48.75 22.75C48.75 23.612 48.4076 24.4386 47.7981 25.0481C47.1886 25.6576 46.3619 26 45.5 26H37.375C36.944 26 36.5307 26.1712 36.2259 26.4759C35.9212 26.7807 35.75 27.194 35.75 27.625C35.75 28.056 35.9212 28.4693 36.2259 28.774C36.5307 29.0788 36.944 29.25 37.375 29.25ZM58.5 71.5H19.5C18.638 71.5 17.8114 71.1576 17.2019 70.5481C16.5924 69.9386 16.25 69.1119 16.25 68.25C16.25 67.388 16.5924 66.5614 17.2019 65.9519C17.8114 65.3424 18.638 65 19.5 65H58.5C59.3619 65 60.1886 65.3424 60.7981 65.9519C61.4076 66.5614 61.75 67.388 61.75 68.25C61.75 69.1119 61.4076 69.9386 60.7981 70.5481C60.1886 71.1576 59.3619 71.5 58.5 71.5Z" fill="white"/>
</g>
</svg>
