<svg width="16" height="16" viewBox="0 0 16 16" fill="none" xmlns="http://www.w3.org/2000/svg">
<g id="Frame" opacity="0.6">
<path id="Vector" fill-rule="evenodd" clip-rule="evenodd" d="M10.6666 6.93333C10.6666 8.9952 8.99517 10.6667 6.9333 10.6667C4.87143 10.6667 3.19997 8.9952 3.19997 6.93333C3.19997 4.87146 4.87143 3.2 6.9333 3.2C8.99517 3.2 10.6666 4.87146 10.6666 6.93333ZM9.9294 10.6836C9.10824 11.3406 8.06665 11.7333 6.9333 11.7333C4.28234 11.7333 2.1333 9.5843 2.1333 6.93333C2.1333 4.28237 4.28234 2.13333 6.9333 2.13333C9.58427 2.13333 11.7333 4.28237 11.7333 6.93333C11.7333 8.06668 11.3406 9.10828 10.6836 9.92943L13.7105 12.9562C13.9187 13.1645 13.9187 13.5022 13.7105 13.7105C13.5022 13.9187 13.1644 13.9187 12.9561 13.7105L9.9294 10.6836Z" fill="#1B1B1F"/>
</g>
</svg>
