<svg width="99" height="97" viewBox="0 0 99 97" fill="none" xmlns="http://www.w3.org/2000/svg">
<g id="food-dish-svgrepo-com (1) 1" clip-path="url(#clip0_23_123)" filter="url(#filter0_d_23_123)">
<g id="Group">
<path id="Vector" fill-rule="evenodd" clip-rule="evenodd" d="M75.6962 48.448C75.6962 56.2715 73.1248 62.9516 67.9747 68.4644C62.8173 73.9851 56.5841 76.7454 49.2752 76.7454C41.9958 76.7454 35.7626 73.9929 30.5978 68.4644C25.4403 62.9516 22.8469 56.2715 22.8469 48.448C22.8469 40.648 25.433 33.9995 30.5978 28.4631C35.7774 22.9424 42.0032 20.1663 49.2752 20.1663C56.5841 20.1663 62.8173 22.9345 67.9747 28.4631C73.1175 33.9995 75.6962 40.648 75.6962 48.448ZM16.0611 43.2348C18.382 41.5392 19.5461 39.323 19.3472 34.2519V21.2152C19.3251 19.3934 16.2379 19.1726 16.0832 21.2152L15.9653 31.7913C15.958 33.7708 13.1803 33.8339 13.1877 31.7913L13.3055 20.8524C13.2687 18.8965 10.3216 18.6994 10.2847 20.8524C10.2847 23.8888 10.1669 28.7549 10.1669 31.7913C10.3142 33.7077 7.73548 33.9601 7.80179 31.7913L7.91968 20.9234C7.85337 19.4486 6.3356 18.9202 5.3041 19.6142C4.2063 20.3634 4.42733 21.8698 4.38313 23.1396L4 35.6163C4.05894 39.2442 4.95045 42.1938 7.60286 43.4478C8.00809 43.6371 8.56804 43.7869 9.21641 43.8894L8.3028 74.3163C8.25123 76.1224 9.62901 77.5972 11.2426 77.5972H11.611C13.4308 77.5972 14.9707 75.9331 14.9191 73.9062L14.116 43.8816C14.9633 43.7396 15.6632 43.5267 16.0611 43.2348ZM82.644 73.4014L82.5998 46.0741C73.6479 40.5376 76.4993 19.2041 85.4585 19.3224C96.3482 19.4565 97.6375 43.361 88.273 45.9873L88.9656 73.5119C89.0982 78.7171 82.6514 79.1982 82.644 73.4014ZM64.6592 48.4243C64.6592 52.9828 63.1635 56.8709 60.1501 60.0966C57.144 63.3065 53.5117 64.9233 49.2531 64.9233C45.024 64.9233 41.3917 63.3065 38.3856 60.0966C35.3795 56.8709 33.8765 52.9828 33.8765 48.4243C33.8765 43.8973 35.3795 40.0092 38.3856 36.7993C41.399 33.5894 45.024 31.9727 49.2531 31.9727C57.8071 31.9805 64.6592 39.26 64.6592 48.4243ZM68.2621 48.4243C68.2621 42.8247 66.4201 38.0375 62.7141 34.0705C59.0081 30.1035 54.5211 28.1318 49.2531 28.1318C43.9999 28.1318 39.5276 30.1035 35.8437 34.0705C32.1377 38.0375 30.2736 42.8247 30.2736 48.4243C30.2736 54.0396 32.1377 58.8268 35.8437 62.8096C39.5276 66.7845 43.9999 68.7798 49.2531 68.7798C54.5137 68.7798 59.0007 66.7845 62.7141 62.8096C66.4127 58.819 68.2621 54.0317 68.2621 48.4243Z" fill="white"/>
</g>
</g>
<defs>
<filter id="filter0_d_23_123" x="0" y="0" width="98.5357" height="104.912" filterUnits="userSpaceOnUse" color-interpolation-filters="sRGB">
<feFlood flood-opacity="0" result="BackgroundImageFix"/>
<feColorMatrix in="SourceAlpha" type="matrix" values="0 0 0 0 0 0 0 0 0 0 0 0 0 0 0 0 0 0 127 0" result="hardAlpha"/>
<feOffset dy="4"/>
<feGaussianBlur stdDeviation="2"/>
<feComposite in2="hardAlpha" operator="out"/>
<feColorMatrix type="matrix" values="0 0 0 0 0 0 0 0 0 0 0 0 0 0 0 0 0 0 0.25 0"/>
<feBlend mode="normal" in2="BackgroundImageFix" result="effect1_dropShadow_23_123"/>
<feBlend mode="normal" in="SourceGraphic" in2="effect1_dropShadow_23_123" result="shape"/>
</filter>
<clipPath id="clip0_23_123">
<rect width="90.5357" height="96.9117" fill="white" transform="translate(4)"/>
</clipPath>
</defs>
</svg>
