<svg width="38" height="37" viewBox="0 0 38 37" fill="none" xmlns="http://www.w3.org/2000/svg">
<g id="ghost-svgrepo-com (3) 1">
<g id="SVGRepo_iconCarrier">
<path id="Vector" d="M25.1666 16.1875C25.1666 17.4646 24.4764 18.5 23.625 18.5C22.7735 18.5 22.0833 17.4646 22.0833 16.1875C22.0833 14.9103 22.7735 13.875 23.625 13.875C24.4764 13.875 25.1666 14.9103 25.1666 16.1875Z" fill="#2C2115"/>
<path id="Vector_2" d="M14.375 18.5C15.2264 18.5 15.9166 17.4647 15.9166 16.1875C15.9166 14.9103 15.2264 13.875 14.375 13.875C13.5235 13.875 12.8333 14.9103 12.8333 16.1875C12.8333 17.4647 13.5235 18.5 14.375 18.5Z" fill="#2C2115"/>
<path id="Vector_3" d="M34.4166 18.9633C34.4166 10.193 27.5143 3.08325 19 3.08325C10.4856 3.08325 3.58331 10.193 3.58331 18.9633V30.4062C3.58331 32.4448 5.66607 33.7707 7.43625 32.859C8.86701 32.1221 10.5714 32.2314 11.9024 33.1454C13.3997 34.1736 15.3503 34.1736 16.8477 33.1454L17.3913 32.7721C18.3654 32.1031 19.6345 32.1031 20.6087 32.7721L21.1523 33.1454C22.6497 34.1736 24.6002 34.1736 26.0977 33.1454C27.4286 32.2314 29.1329 32.1221 30.5637 32.859C32.3339 33.7707 34.4166 32.4448 34.4166 30.4062V24.6848" stroke="#2C2115" stroke-width="4" stroke-linecap="round"/>
</g>
</g>
</svg>
